<svg width="16" height="16" viewBox="0 0 16 16" fill="none" xmlns="http://www.w3.org/2000/svg">
<g clip-path="url(#clip0_2004_24940)">
<rect width="16" height="16" rx="2" fill="#E6FF84"/>
<g clip-path="url(#clip1_2004_24940)">
<path d="M4.6665 3.66669H3.6665V4.66669C3.6665 4.9319 3.56115 5.18626 3.37361 5.37379C3.18607 5.56133 2.93172 5.66669 2.6665 5.66669C2.40129 5.66669 2.14693 5.56133 1.9594 5.37379C1.77186 5.18626 1.6665 4.9319 1.6665 4.66669V3.33335C1.6665 2.89133 1.8421 2.4674 2.15466 2.15484C2.46722 1.84228 2.89114 1.66669 3.33317 1.66669H4.6665C4.93172 1.66669 5.18607 1.77204 5.37361 1.95958C5.56115 2.14712 5.6665 2.40147 5.6665 2.66669C5.6665 2.9319 5.56115 3.18626 5.37361 3.37379C5.18607 3.56133 4.93172 3.66669 4.6665 3.66669ZM11.3332 1.66669C11.068 1.66669 10.8136 1.77204 10.6261 1.95958C10.4385 2.14712 10.3332 2.40147 10.3332 2.66669C10.3332 2.9319 10.4385 3.18626 10.6261 3.37379C10.8136 3.56133 11.068 3.66669 11.3332 3.66669H12.3332V4.66669C12.3332 4.9319 12.4385 5.18626 12.6261 5.37379C12.8136 5.56133 13.068 5.66669 13.3332 5.66669C13.5984 5.66669 13.8527 5.56133 14.0403 5.37379C14.2278 5.18626 14.3332 4.9319 14.3332 4.66669V3.33335C14.3332 2.89133 14.1576 2.4674 13.845 2.15484C13.5325 1.84228 13.1085 1.66669 12.6665 1.66669H11.3332ZM3.6665 11.3334C3.6665 11.0681 3.56115 10.8138 3.37361 10.6262C3.18607 10.4387 2.93172 10.3334 2.6665 10.3334C2.40129 10.3334 2.14693 10.4387 1.9594 10.6262C1.77186 10.8138 1.6665 11.0681 1.6665 11.3334V12.6667C1.6665 13.1087 1.8421 13.5326 2.15466 13.8452C2.46722 14.1578 2.89114 14.3334 3.33317 14.3334H4.6665C4.93172 14.3334 5.18607 14.228 5.37361 14.0405C5.56115 13.8529 5.6665 13.5986 5.6665 13.3334C5.6665 13.0681 5.56115 12.8138 5.37361 12.6262C5.18607 12.4387 4.93172 12.3334 4.6665 12.3334H3.6665V11.3334ZM14.3332 11.3334C14.3332 11.0681 14.2278 10.8138 14.0403 10.6262C13.8527 10.4387 13.5984 10.3334 13.3332 10.3334C13.068 10.3334 12.8136 10.4387 12.6261 10.6262C12.4385 10.8138 12.3332 11.0681 12.3332 11.3334V12.3334H11.3332C11.068 12.3334 10.8136 12.4387 10.6261 12.6262C10.4385 12.8138 10.3332 13.0681 10.3332 13.3334C10.3332 13.5986 10.4385 13.8529 10.6261 14.0405C10.8136 14.228 11.068 14.3334 11.3332 14.3334H12.6665C13.1085 14.3334 13.5325 14.1578 13.845 13.8452C14.1576 13.5326 14.3332 13.1087 14.3332 12.6667V11.3334ZM5.99984 6.66669C5.99984 6.48988 5.9296 6.32031 5.80457 6.19528C5.67955 6.07026 5.50998 6.00002 5.33317 6.00002C5.15636 6.00002 4.98679 6.07026 4.86177 6.19528C4.73674 6.32031 4.6665 6.48988 4.6665 6.66669V9.33335C4.6665 9.51016 4.73674 9.67973 4.86177 9.80476C4.98679 9.92978 5.15636 10 5.33317 10C5.50998 10 5.67955 9.92978 5.80457 9.80476C5.9296 9.67973 5.99984 9.51016 5.99984 9.33335C5.99984 9.51016 6.07008 9.67973 6.1951 9.80476C6.32012 9.92978 6.48969 10 6.6665 10C6.84332 10 7.01288 9.92978 7.13791 9.80476C7.26293 9.67973 7.33317 9.51016 7.33317 9.33335V6.66669C7.33317 6.48988 7.26293 6.32031 7.13791 6.19528C7.01288 6.07026 6.84332 6.00002 6.6665 6.00002C6.48969 6.00002 6.32012 6.07026 6.1951 6.19528C6.07008 6.32031 5.99984 6.48988 5.99984 6.66669ZM9.33317 6.66669C9.33317 6.48988 9.26293 6.32031 9.13791 6.19528C9.01288 6.07026 8.84332 6.00002 8.6665 6.00002C8.48969 6.00002 8.32012 6.07026 8.1951 6.19528C8.07008 6.32031 7.99984 6.48988 7.99984 6.66669V9.33335C7.99984 9.51016 8.07008 9.67973 8.1951 9.80476C8.32012 9.92978 8.48969 10 8.6665 10C8.84332 10 9.01288 9.92978 9.13791 9.80476C9.26293 9.67973 9.33317 9.51016 9.33317 9.33335V6.66669ZM10.6665 6.00002C10.7878 6.00002 10.9018 6.03269 10.9998 6.08935C11.1012 6.03084 11.2161 6.00004 11.3332 6.00004C11.4502 6.00004 11.5652 6.03084 11.6665 6.08935C11.7678 6.14786 11.852 6.23202 11.9105 6.33336C11.969 6.4347 11.9998 6.54966 11.9998 6.66669V9.33335C11.9998 9.45038 11.969 9.56534 11.9105 9.66668C11.852 9.76803 11.7678 9.85218 11.6665 9.91069C11.5652 9.9692 11.4502 10 11.3332 10C11.2161 10 11.1012 9.9692 10.9998 9.91069C10.8985 9.9692 10.7835 10 10.6665 10C10.5495 10 10.4345 9.9692 10.3332 9.91069C10.2318 9.85218 10.1477 9.76803 10.0892 9.66668C10.0306 9.56534 9.99984 9.45038 9.99984 9.33335V6.66669C9.99984 6.48988 10.0701 6.32031 10.1951 6.19528C10.3201 6.07026 10.4897 6.00002 10.6665 6.00002ZM3.33317 7.33335C3.33317 7.15654 3.26293 6.98697 3.13791 6.86195C3.01288 6.73693 2.84331 6.66669 2.6665 6.66669C2.48969 6.66669 2.32012 6.73693 2.1951 6.86195C2.07008 6.98697 1.99984 7.15654 1.99984 7.33335V8.66669C1.99984 8.8435 2.07008 9.01307 2.1951 9.13809C2.32012 9.26312 2.48969 9.33335 2.6665 9.33335C2.84331 9.33335 3.01288 9.26312 3.13791 9.13809C3.26293 9.01307 3.33317 8.8435 3.33317 8.66669V7.33335ZM13.9998 7.33335C13.9998 7.15654 13.9296 6.98697 13.8046 6.86195C13.6796 6.73693 13.51 6.66669 13.3332 6.66669C13.1564 6.66669 12.9868 6.73693 12.8618 6.86195C12.7367 6.98697 12.6665 7.15654 12.6665 7.33335V8.66669C12.6665 8.8435 12.7367 9.01307 12.8618 9.13809C12.9868 9.26312 13.1564 9.33335 13.3332 9.33335C13.51 9.33335 13.6796 9.26312 13.8046 9.13809C13.9296 9.01307 13.9998 8.8435 13.9998 8.66669V7.33335Z" fill="black"/>
</g>
</g>
<defs>
<clipPath id="clip0_2004_24940">
<rect width="16" height="16" rx="2" fill="white"/>
</clipPath>
<clipPath id="clip1_2004_24940">
<rect width="16" height="16" fill="white"/>
</clipPath>
</defs>
</svg>
