<svg width="276" height="128" viewBox="0 0 276 128" fill="none" xmlns="http://www.w3.org/2000/svg">
<mask id="path-1-inside-1_22_184" fill="white">
<path d="M0 0H276V128H0V0Z"/>
</mask>
<path d="M0 0H276V128H0V0Z" fill="white"/>
<path d="M61.6681 27.9688H68.59V51H64.1056V35.4219C64.1056 34.974 64.1108 34.349 64.1212 33.5469C64.1317 32.7344 64.1369 32.1094 64.1369 31.6719L59.7775 51H55.1056L50.7775 31.6719C50.7775 32.1094 50.7827 32.7344 50.7931 33.5469C50.8035 34.349 50.8087 34.974 50.8087 35.4219V51H46.3244V27.9688H53.3244L57.5119 46.0781L61.6681 27.9688ZM76.4969 33.9688V44.2344C76.4969 45.2031 76.6115 45.9323 76.8406 46.4219C77.2469 47.2865 78.0437 47.7188 79.2312 47.7188C80.7521 47.7188 81.7937 47.1042 82.3562 45.875C82.6479 45.2083 82.7937 44.3281 82.7937 43.2344V33.9688H87.3094V51H82.9812V48.5938C82.9396 48.6458 82.8354 48.8021 82.6687 49.0625C82.5021 49.3229 82.3042 49.5521 82.075 49.75C81.3771 50.375 80.7 50.8021 80.0437 51.0312C79.3979 51.2604 78.6375 51.375 77.7625 51.375C75.2417 51.375 73.5437 50.4688 72.6687 48.6562C72.1792 47.6562 71.9344 46.1823 71.9344 44.2344V33.9688H76.4969ZM95.7475 51H90.9662V27.9688H95.7475V51ZM103.092 43.8906C103.238 44.9427 103.524 45.7292 103.951 46.25C104.732 47.1979 106.071 47.6719 107.967 47.6719C109.102 47.6719 110.024 47.5469 110.732 47.2969C112.076 46.8177 112.748 45.9271 112.748 44.625C112.748 43.8646 112.415 43.276 111.748 42.8594C111.081 42.4531 110.035 42.0938 108.607 41.7812L106.17 41.2344C103.774 40.6927 102.118 40.1042 101.201 39.4688C99.6492 38.4062 98.8731 36.7448 98.8731 34.4844C98.8731 32.4219 99.6231 30.7083 101.123 29.3438C102.623 27.9792 104.826 27.2969 107.732 27.2969C110.16 27.2969 112.227 27.9427 113.936 29.2344C115.654 30.5156 116.555 32.3802 116.639 34.8281H112.014C111.93 33.4427 111.326 32.4583 110.201 31.875C109.451 31.4896 108.519 31.2969 107.404 31.2969C106.165 31.2969 105.175 31.5469 104.436 32.0469C103.696 32.5469 103.326 33.2448 103.326 34.1406C103.326 34.9635 103.691 35.5781 104.42 35.9844C104.889 36.2552 105.889 36.5729 107.42 36.9375L111.389 37.8906C113.128 38.3073 114.441 38.8646 115.326 39.5625C116.701 40.6458 117.389 42.2135 117.389 44.2656C117.389 46.3698 116.581 48.1198 114.967 49.5156C113.363 50.901 111.092 51.5938 108.154 51.5938C105.154 51.5938 102.795 50.9115 101.076 49.5469C99.3575 48.1719 98.4981 46.2865 98.4981 43.8906H103.092ZM124.53 31.9375H120.014V27.8281H124.53V31.9375ZM120.014 33.9688H124.53V51H120.014V33.9688ZM145.875 42.7188C145.594 42.8958 145.307 43.0417 145.016 43.1562C144.734 43.2604 144.344 43.3594 143.844 43.4531L142.844 43.6406C141.906 43.8073 141.234 44.0104 140.828 44.25C140.141 44.6562 139.797 45.2865 139.797 46.1406C139.797 46.901 140.005 47.4531 140.422 47.7969C140.849 48.1302 141.365 48.2969 141.969 48.2969C142.927 48.2969 143.807 48.0156 144.609 47.4531C145.422 46.8906 145.844 45.8646 145.875 44.375V42.7188ZM143.172 40.6406C143.995 40.5365 144.583 40.4062 144.938 40.25C145.573 39.9792 145.891 39.5573 145.891 38.9844C145.891 38.2865 145.646 37.8073 145.156 37.5469C144.677 37.276 143.969 37.1406 143.031 37.1406C141.979 37.1406 141.234 37.401 140.797 37.9219C140.484 38.3073 140.276 38.8281 140.172 39.4844H135.875C135.969 37.9948 136.385 36.7708 137.125 35.8125C138.302 34.3125 140.323 33.5625 143.188 33.5625C145.052 33.5625 146.708 33.9323 148.156 34.6719C149.604 35.4115 150.328 36.8073 150.328 38.8594V46.6719C150.328 47.2135 150.339 47.8698 150.359 48.6406C150.391 49.224 150.479 49.6198 150.625 49.8281C150.771 50.0365 150.99 50.2083 151.281 50.3438V51H146.438C146.302 50.6562 146.208 50.3333 146.156 50.0312C146.104 49.7292 146.062 49.3854 146.031 49C145.417 49.6667 144.708 50.2344 143.906 50.7031C142.948 51.2552 141.865 51.5312 140.656 51.5312C139.115 51.5312 137.839 51.0938 136.828 50.2188C135.828 49.3333 135.328 48.0833 135.328 46.4688C135.328 44.375 136.135 42.8594 137.75 41.9219C138.635 41.4115 139.938 41.0469 141.656 40.8281L143.172 40.6406ZM162.86 33.5938C165.1 33.5938 166.85 34.401 168.11 36.0156C169.381 37.6302 170.016 39.7135 170.016 42.2656C170.016 44.9115 169.391 47.1042 168.141 48.8438C166.891 50.5833 165.146 51.4531 162.907 51.4531C161.501 51.4531 160.37 51.1719 159.516 50.6094C159.006 50.276 158.454 49.6927 157.86 48.8594V51H153.501V28H157.938V36.1875C158.501 35.3958 159.12 34.7917 159.797 34.375C160.6 33.8542 161.62 33.5938 162.86 33.5938ZM161.719 47.7812C162.865 47.7812 163.756 47.3177 164.391 46.3906C165.027 45.4635 165.344 44.2448 165.344 42.7344C165.344 41.526 165.188 40.526 164.876 39.7344C164.282 38.2344 163.188 37.4844 161.594 37.4844C159.98 37.4844 158.87 38.2188 158.266 39.6875C157.954 40.4688 157.797 41.4792 157.797 42.7188C157.797 44.1771 158.12 45.3854 158.766 46.3438C159.412 47.3021 160.396 47.7812 161.719 47.7812ZM177.158 31.9375H172.642V27.8281H177.158V31.9375ZM172.642 33.9688H177.158V51H172.642V33.9688ZM185.393 51H180.939V27.9688H185.393V51ZM193.69 31.9375H189.174V27.8281H193.69V31.9375ZM189.174 33.9688H193.69V51H189.174V33.9688ZM206.816 33.5625C208.576 33.5625 210.014 34.026 211.128 34.9531C212.253 35.8698 212.816 37.3958 212.816 39.5312V51H208.253V40.6406C208.253 39.7448 208.133 39.0573 207.894 38.5781C207.456 37.7031 206.623 37.2656 205.394 37.2656C203.883 37.2656 202.847 37.9062 202.284 39.1875C201.993 39.8646 201.847 40.7292 201.847 41.7812V51H197.409V34H201.706V36.4844C202.279 35.6094 202.821 34.9792 203.331 34.5938C204.248 33.9062 205.409 33.5625 206.816 33.5625ZM223.019 37.1875C221.988 37.1875 221.186 37.5104 220.613 38.1562C220.051 38.8021 219.696 39.6771 219.551 40.7812H226.473C226.4 39.6042 226.04 38.7135 225.394 38.1094C224.759 37.4948 223.967 37.1875 223.019 37.1875ZM223.019 33.5156C224.436 33.5156 225.712 33.7812 226.848 34.3125C227.983 34.8438 228.92 35.6823 229.66 36.8281C230.327 37.8385 230.759 39.0104 230.957 40.3438C231.071 41.125 231.118 42.25 231.098 43.7188H219.441C219.504 45.4271 220.04 46.625 221.051 47.3125C221.665 47.7396 222.405 47.9531 223.269 47.9531C224.186 47.9531 224.931 47.6927 225.504 47.1719C225.816 46.8906 226.092 46.5 226.332 46H230.879C230.764 47.0104 230.238 48.0365 229.301 49.0781C227.842 50.7344 225.801 51.5625 223.176 51.5625C221.009 51.5625 219.098 50.8646 217.441 49.4688C215.785 48.0729 214.957 45.8021 214.957 42.6562C214.957 39.7083 215.702 37.4479 217.191 35.875C218.691 34.3021 220.634 33.5156 223.019 33.5156Z" fill="#212529"/>
<path d="M32 64H34.5658V94H32V64Z" fill="#212529"/>
<path d="M38.2313 64H43.7294V94H38.2313V64Z" fill="#212529"/>
<path d="M45.1956 64H50.6938V94H45.1956V64Z" fill="#212529"/>
<path d="M54.3592 64H60.957V94H54.3592V64Z" fill="#212529"/>
<path d="M62.0567 64H68.6545V94H62.0567V64Z" fill="#212529"/>
<path d="M72.3199 64H74.1526V94H72.3199V64Z" fill="#212529"/>
<path d="M77.8181 64H81.9163V93.8468H77.8181V64Z" fill="#212529"/>
<path d="M87.4145 64H95.611V93.8468H87.4145V64Z" fill="#212529"/>
<path d="M99.2764 64H106.448V93.8468H99.2764V64Z" fill="#212529"/>
<path d="M108.281 64H116.478V93.8468H108.281V64Z" fill="#212529"/>
<path d="M126.374 64H120.143V94H126.374V64Z" fill="#212529"/>
<path d="M132.972 64H130.04V94H132.972V64Z" fill="#212529"/>
<path d="M137.737 64H134.805V94H137.737V64Z" fill="#212529"/>
<path d="M138.263 64H140.829V94H138.263V64Z" fill="#212529"/>
<path d="M144.494 64H149.992V94H144.494V64Z" fill="#212529"/>
<path d="M151.458 64H156.957V94H151.458V64Z" fill="#212529"/>
<path d="M160.622 64H167.22V94H160.622V64Z" fill="#212529"/>
<path d="M168.32 64H174.917V94H168.32V64Z" fill="#212529"/>
<path d="M178.583 64H180.416V94H178.583V64Z" fill="#212529"/>
<path d="M184.081 64H188.179V93.8468H184.081V64Z" fill="#212529"/>
<path d="M193.677 64H201.874V93.8468H193.677V64Z" fill="#212529"/>
<path d="M205.539 64H212.711V93.8468H205.539V64Z" fill="#212529"/>
<path d="M214.544 64H222.74V93.8468H214.544V64Z" fill="#212529"/>
<path d="M232.637 64H226.406V94H232.637V64Z" fill="#212529"/>
<path d="M239.235 64H236.303V94H239.235V64Z" fill="#212529"/>
<path d="M244 64H241.068V94H244V64Z" fill="#212529"/>
<path d="M274 0V128H278V0H274Z" fill="#212529" mask="url(#path-1-inside-1_22_184)"/>
</svg>
