<?xml version="1.0" encoding="UTF-8"?> <svg xmlns="http://www.w3.org/2000/svg" xmlns:xlink="http://www.w3.org/1999/xlink" version="1.1" id="Layer_1" x="0px" y="0px" viewBox="0 0 41.2 37" style="enable-background:new 0 0 41.2 37;" xml:space="preserve"> <style type="text/css"> .st0{fill:#EEE938;} .st1{fill:#FFFFFF;} </style> <g id="Layer_2_1_"> <path class="st0" d="M5.7,23.2c0.2,0.2,0.5,0.3,0.7,0.4c0.2,0.1,0.5,0.3,0.9,0.4l0.2-0.2l0.5-1.1l-0.9-0.5l-0.5-0.3"></path> <polyline class="st0" points="4.2,21.8 4.8,22.5 5.5,23 6.4,21.7 5.2,20.7 "></polyline> <polyline class="st0" points="8.1,22.6 7.5,24.2 9,24.5 9.4,23.1 8.8,22.8 "></polyline> <polyline class="st0" points="9.6,23.1 9.3,24.6 10.6,24.8 10.7,23.3 "></polyline> <polyline class="st0" points="11.1,23.4 11,24.7 11.4,24.8 12,25 13.2,25.1 13.2,23.5 "></polyline> <polyline class="st0" points="8.9,22.5 9.5,22.6 9.9,22.7 10.1,22.6 10.3,22.8 10.4,22.7 10.6,22.4 10.7,22 10.7,21.6 10.4,21.5 10,21.3 9.3,21.1 9.1,21.7 8.8,22.3 8.7,22.5 "></polyline> <polyline class="st0" points="11,21.6 11,21.9 10.9,22.6 11,22.8 11.3,23.1 11.7,23.1 12.3,23.1 12.8,23.2 12.9,22.6 12.8,21.8 12.3,21.8 11.7,21.7 11.6,21.7 "></polyline> <path class="st0" d="M13.5,23.5l0,1l0,0.5l0.5,0l0.4-0.1l0.4-0.2l0-0.4L14.8,24l-0.1-0.1l-0.2-0.3l0-0.2 C14.5,23.3,13.5,23.5,13.5,23.5"></path> <polyline class="st0" points="16.8,22.5 17,23.1 17.4,23.8 18,23.5 18.6,23.1 18.2,22.5 18,22.3 17.9,22 17.6,22.1 17.4,22.1 "></polyline> <polyline class="st0" points="16.1,20.9 16.3,21.4 16.6,22 16.9,22.1 17.3,21.9 17.6,21.6 17.3,20.9 17.1,20.7 17,20.5 16.8,20.5 16.7,20.5 "></polyline> <polyline class="st0" points="3.9,18.7 4.1,19.1 4.4,19.4 4.8,19.7 5,20.1 5.2,20.4 5.6,19.9 6.1,19.5 6.4,19.2 6.1,18.9 5.7,18.3 5.4,17.9 5.1,17.8 4.4,18.4 "></polyline> <path class="st0" d="M7.2,21.7l0.2,0.2L7.8,22l0.3,0.2l0.3,0.1L8.7,22L9,21.4L9.1,21l0-0.2l-0.5-0.1l-0.3-0.1l-0.2-0.1l-0.2,0.2 l-0.3,0.5C7.5,21.3,7.2,21.7,7.2,21.7"></path> <path class="st0" d="M12.2,16.3l0,0.4L11.9,17l-0.2,0.5l0.2,0.1l0.6,0.1l0.7-0.1l0.1-0.5c0,0-0.1-0.3-0.1-0.5c0-0.2,0-0.3,0-0.3 L13,16.3"></path> <polyline class="st0" points="12.6,18 12.6,18.5 12.7,18.9 12.7,19.3 13,19.4 13.8,19.4 14.1,19.3 14.1,18.8 14,17.9 13,17.9 "></polyline> <polyline class="st0" points="12.3,19.9 12.4,20.7 12.4,21.4 12.6,21.4 13.1,21.4 13.5,21.3 13.6,20.8 13.6,20.4 13.4,20.1 13.3,19.8 13,19.8 "></polyline> <polyline class="st0" points="13.2,21.8 13.2,22.6 13.2,23.1 13.6,23.2 13.8,23.1 14,22.9 14.5,22.9 14.6,22.8 14.5,22 14.4,21.6 14.1,21.5 13.7,21.5 13.4,21.6 "></polyline> <path class="st0" d="M15.2,24.5l0.5-0.1l0.4-0.3l0.9-0.3l-0.3-0.6l-0.3-0.5l-0.2-0.1l-0.2,0.1l-0.3,0.1l-0.6,0.2L15,23.2l0,0.5 l0.2,0.3C15.2,24.1,15.2,24.6,15.2,24.5"></path> <polyline class="st0" points="14.9,22.8 15.6,22.6 16,22.3 16.2,22.1 16.1,21.9 15.8,21.4 15.7,21 15.3,21.1 14.6,21.4 14.6,21.7 14.8,22.1 "></polyline> <path class="st0" d="M13.7,19.8l0.1,0.5l0.1,0.4l0.1,0.4l0.5,0l0.7-0.3l0-0.1L15,20.1l-0.1-0.5l-0.2-0.2l-0.5,0.1 C14.3,19.5,13.6,19.7,13.7,19.8"></path> <polyline class="st0" points="9.7,16.6 10.1,16.8 10.6,17.2 11.1,17.5 11.3,17.5 11.6,17.2 11.8,16.7 11.8,16.4 11.6,16.3 11.1,16.1 10.6,15.8 10.4,15.8 "></polyline> <polyline class="st0" points="14.3,17.9 14.3,18.3 14.5,19.1 15.3,19 15.8,18.9 15.8,18.7 15.6,17.9 15.3,17.6 14.9,17.6 "></polyline> <polyline class="st0" points="15.1,19.3 15.1,19.6 15.3,20.2 15.5,20.6 16,20.4 16.2,20.3 16.5,20.1 16.4,19.8 16.3,19.7 16,19.5 15.9,19.3 15.7,19.2 "></polyline> <path class="st0" d="M13.6,16.3l0.1,0.6l0.1,0.5l0.1,0.3l0.4-0.1l0.4-0.1l0.4-0.1L15.1,17l-0.2-0.3c0-0.4-0.4-0.7-0.5-0.7 C13.9,16,13.9,16.2,13.6,16.3"></path> <polyline class="st0" points="8,19.9 8.2,19.6 8.5,19.2 8.7,18.9 8.9,18.8 9.2,19 9.1,19.4 9,20 8.9,20.5 8.6,20.5 8.2,20.2 "></polyline> <polyline class="st0" points="9.4,19 9.3,19.3 9.1,19.9 9.1,20.2 9.1,20.5 9.5,20.7 9.8,20.9 10.3,21.1 10.3,20.6 10.4,20 10.5,19.6 10.4,19.4 10,19.3 "></polyline> <polyline class="st0" points="10.8,19.6 10.8,19.9 10.6,20.2 10.6,20.5 10.6,21.2 10.9,21.3 11.3,21.4 11.7,21.4 12,21.5 12.1,21.2 12,20.7 12.1,19.8 11.7,19.8 11.2,19.7 "></polyline> <polyline class="st0" points="7.8,14 8.1,14.5 8.2,14.8 8.5,15.2 8.7,15.1 9.4,14.5 9.4,14.2 9.1,13.7 8.9,13.5 8.7,13.5 "></polyline> <polyline class="st0" points="9.6,14.7 9.3,14.9 8.5,15.5 8.7,15.7 8.9,16 9.1,16.1 9.3,16.4 9.5,16.5 9.8,16 10.1,16 10.3,15.6 10.2,15.5 10,15.1 "></polyline> <path class="st0" d="M8.4,17.9l0.3,0.3L9,18.5l0.9,0.4l0.2-0.1l0.1-0.4l0.2-0.3l0.1-0.2l0.2-0.2l0-0.2l-0.2-0.1l-0.3-0.1l-0.4-0.2 L9.6,17l-0.2-0.1L9.3,17l-0.2,0.3l-0.3,0.3l-0.3,0.1C8.5,17.7,8.4,17.9,8.4,17.9"></path> <polyline class="st0" points="2.9,20.2 3.2,20 3.4,19.8 3.6,19.6 3.9,19.3 4.1,19.3 4.3,19.7 4.6,20.1 4.9,20.4 5,20.7 4.7,21 4.4,21.3 4.1,21.5 4,21.7 3.7,21.4 3.5,21.2 3.3,20.9 3.1,20.6 2.9,20.3 "></polyline> <polyline class="st0" points="7,16.2 7.1,16.5 7.3,16.7 7.5,17 7.8,17.3 8,17.5 8.2,17.7 8.5,17.4 8.9,17.1 9.2,16.9 9.2,16.6 9,16.5 8.8,16.3 8.7,16 8.5,15.8 8.3,15.7 8.1,15.7 7.8,15.6 7.5,15.9 7.3,16.1 "></polyline> <path class="st0" d="M1.9,18.4l0.3,0.8l0.3,0.6l0.1,0.1l0.4-0.1l0.3-0.3l0.3-0.2L4,19.2L3.9,19l-0.4-0.6l-0.2-0.6l-0.2,0l-0.3,0.3 C2.3,18.1,2.3,18.3,1.9,18.4"></path> <polyline class="st0" points="5.1,16.8 5.3,16.6 5.6,16.6 6.1,16.4 6.4,16.1 6.5,16.1 6.7,16.4 6.9,16.7 7.3,17.1 7,17.3 6.7,17.6 6.1,18 5.9,18.1 5.6,17.7 5.4,17.3 5.2,17 "></polyline> <polyline class="st0" points="1.7,18 1.5,17.6 1.4,17.3 1.1,16.6 1.5,16.5 2.1,16.2 2.6,16.1 2.8,16.2 2.8,16.6 3,16.9 3.1,17.2 3.2,17.5 3,17.7 2.6,17.8 2.3,18 2,18.1 1.8,18.1 "></polyline> <polyline class="st0" points="3.2,16.7 3.2,17 3.4,17.4 3.6,17.7 3.7,18 3.9,18.2 4.2,18.1 4.5,18 4.7,17.8 5.1,17.6 5.2,17.4 4.8,16.8 4.6,16.4 4.4,16.2 4.1,16.3 3.7,16.5 "></polyline> <polyline class="st0" points="4.4,14.6 4.5,14.9 4.6,15.4 4.8,15.8 4.9,16.2 5,16.3 5.1,16.5 5.5,16.3 5.7,16.3 6.1,16 6.3,15.9 6.4,15.7 6.1,15.2 5.9,14.7 5.8,14.5 5.7,14.2 5.7,14.1 5.5,14.1 5.2,14.1 5,14.2 4.7,14.3 4.6,14.5 "></polyline> <polyline class="st0" points="2.6,15.1 2.7,15.4 2.7,15.6 3,16 3,16.2 3.1,16.4 3.3,16.4 3.7,16.3 4,16.1 4.4,16 4.4,15.9 4.3,15.5 4.2,15.1 4,14.8 3.9,14.6 3.6,14.7 3.1,14.8 "></polyline> <polyline class="st0" points="5.4,20.5 5.7,20.3 5.9,20 6.2,19.8 6.5,19.5 6.9,19.6 7.4,20.1 7.8,20.4 7.8,20.7 7.6,20.9 7.4,21.2 7.2,21.3 6.9,21.4 6.6,21.3 6.3,21.3 5.9,21.1 5.6,20.8 "></polyline> <path class="st0" d="M1.1,16.2l0.3,0l0.5-0.1l0.6-0.3l0-0.4c0,0,0-0.1-0.1-0.2c0-0.1-0.1-0.4-0.1-0.4l-0.1-0.3l0-0.2l-0.1-0.1 l-0.4,0l-0.4,0.2l-0.3,0.1l-0.2,0.3l0,0.6l0.2,0.2l0.1,0.5"></path> <path class="st0" d="M4.2,14.2l0.4,0l0.3-0.2l0.3-0.1l0.3-0.1l0-0.2l-0.2-0.8l-0.6,0l-0.8,0.1l0,0.3l0,0.4l0.1,0.3 C4.1,13.9,4.3,14.1,4.2,14.2"></path> <polyline class="st0" points="2.6,14.7 2.8,14.7 3.1,14.6 3.3,14.5 3.9,14.4 3.9,14.2 3.8,13.8 3.7,13.5 3.7,13 3.4,13 3.1,13.1 2.5,12.8 2.4,13.1 2.4,13.4 2.4,13.9 "></polyline> <path class="st0" d="M6.1,18.3l0.1-0.2l0.6-0.4l0.5-0.3c0.1-0.1,0.3,0.1,0.3,0.1L8,17.9l0.3,0.4l0.2,0.2l0,0.3l-0.2,0.2l-0.2,0.3 L8,19.4l-0.3,0.3l-0.3-0.1l-0.2-0.2l-0.4-0.1l-0.4-0.4l-0.2-0.2"></path> <polyline class="st0" points="15.1,7 15,7.3 15.1,7.5 15.4,7.7 15.8,7.9 16,8.1 16.3,7.8 16.7,7.4 16.9,7.1 16.6,7 16.2,6.5 15.5,6.2 15.3,6.6 "></polyline> <polyline class="st0" points="16.3,8.4 16.3,8.1 16.7,7.7 17.2,7.5 17.4,7.5 17.8,7.8 18.1,8.3 18.3,8.5 18.2,8.7 17.4,9.5 17.2,9.5 16.8,8.9 "></polyline> <polyline class="st0" points="15.8,10.7 16.6,10.3 17.1,9.9 16.8,9.3 16.4,8.8 16.1,8.6 15.8,8.9 15.2,9.6 15.2,9.8 15.4,10.2 15.6,10.4 "></polyline> <polyline class="st0" points="17.8,7.4 18.1,7.8 18.4,8.1 18.6,8.4 19,8.2 19.5,7.8 19.9,7.6 19.8,7.4 19.1,6.7 18.8,6.3 18.6,6.2 18.3,6.6 18.1,6.9 17.9,7.1 "></polyline> <polyline class="st0" points="15,9.4 15.4,9 15.7,8.6 15.8,8.4 15.5,8.1 14.8,7.6 14.2,7.5 14.1,7.7 14,8.2 13.8,8.7 14.1,9 14.3,9.2 14.6,9.3 "></polyline> <path class="st0" d="M16.4,12.4l0.1-0.2l0.4,0l0.6,0l0.1,0.4l0,0.6l0,0.4l-0.5,0l-0.4,0l-0.3,0l0-0.7 C16.5,12.9,16.5,12.4,16.4,12.4"></path> <polyline class="st0" points="17.5,7.2 17.8,6.8 18.1,6.3 18.5,6 18,5.7 17.5,5.3 17.1,5 16.9,5.1 16.6,5.7 16.4,6.3 16.6,6.6 16.9,6.8 17.2,7 "></polyline> <polyline class="st0" points="18.7,8.5 19,9.1 19.2,9.8 19.7,9.5 20.1,9.4 20.5,9.1 20.4,8.6 20.3,8.2 20,7.9 19.6,8.2 "></polyline> <polyline class="st0" points="16.8,4.5 17.1,4.8 17.5,4.9 17.9,5.2 18.1,5.4 18.4,5.1 18.7,4.8 19,4.5 18.5,4.1 18.2,3.9 17.8,3.5 17.5,3.4 17.2,3.9 "></polyline> <polyline class="st0" points="16.7,4.3 17,3.8 17.2,3.3 16.9,3.1 15.4,2.8 15.3,3.2 15.2,3.7 15.3,4 15.8,4.1 "></polyline> <polyline class="st0" points="16.1,6.1 16.3,5.7 16.6,5.3 16.7,4.9 16.5,4.7 16.1,4.5 15.4,4.2 15.2,4.2 15.1,4.6 14.8,5.5 15.1,5.7 15.4,5.9 "></polyline> <path class="st0" d="M16.3,11.9l-0.2-0.4l-0.1-0.6l0.6-0.2l0.5-0.3l0.2,0.4l0,0.3l0.1,0.3l0,0.5l-0.4,0l-0.4,0.1 C16.8,11.9,16.3,11.8,16.3,11.9"></path> <polyline class="st0" points="18.4,5.6 18.7,5.9 19,6.1 19.3,6.3 19.8,6 20.3,5.5 19.9,5.1 19.2,4.7 18.7,5.1 "></polyline> <path class="st0" d="M19.5,6.5l0.4-0.4l0.5-0.3l0.4,0.5l0.3,0.5l0.4,0.5L21,7.6l-0.5,0.2l-0.4-0.4l-0.3-0.5 C19.9,6.8,19.5,6.6,19.5,6.5"></path> <polyline class="st0" points="17.8,10.8 18.6,10.4 18.9,10.4 18.9,9.9 18.7,9.3 18.4,8.9 17.8,9.6 17.5,9.8 17.5,10.2 "></polyline> <polyline class="st0" points="20.4,5 20.5,5.4 20.9,5.6 21.1,6.3 21.7,5.8 22.2,5.3 22,4.8 21.5,4.4 21.3,4.2 "></polyline> <polyline class="st0" points="20.7,8.1 20.7,8.6 20.8,9.2 21.6,9.1 22.1,9 21.9,8.3 21.7,7.6 21.2,7.7 "></polyline> <polyline class="st0" points="30.3,18.2 30.3,18.7 30.4,19 30.6,19.2 30.8,19.2 31.2,19.1 31.8,18.8 31.6,18.1 31.4,17.8 30.8,18 "></polyline> <polyline class="st0" points="21.4,6.4 21.7,6.9 21.9,7.4 22.5,7.2 22.7,7.1 23,6.8 22.4,5.6 22,5.8 "></polyline> <path class="st0" d="M9.5,6.4l0.2,0.8l0.4,0.6l0.6-0.3l0.8-0.2l-0.2-0.7L11,5.9L10.4,6L9.9,6.2C9.9,6.2,9.4,6.2,9.5,6.4"></path> <polyline class="st0" points="21,9.6 21,9.9 21.1,10.9 21.8,10.8 22.4,10.7 22.3,10.1 22.1,9.3 21.6,9.4 "></polyline> <polyline class="st0" points="22.2,7.8 22.3,8.4 22.4,9 22.9,8.8 23.6,8.7 23.5,7.8 23.3,7.3 22.7,7.4 "></polyline> <polyline class="st0" points="19.1,4.1 19.3,3.6 19.7,3.4 19.9,2.9 20.4,3.4 21.1,4 20.9,4.2 20.2,4.8 19.9,4.6 19.5,4.5 19.3,4.4 "></polyline> <polyline class="st0" points="17.8,3.2 18.2,3.4 18.4,3.7 18.8,4.1 19.2,3.5 19.7,2.8 18.8,2.1 18.2,1.8 18,2.6 "></polyline> <polyline class="st0" points="6.6,2.4 6.7,2.6 7,3 7.5,3.4 8.1,3.1 8.6,2.9 8.3,2.3 8,1.7 7.4,1.9 6.8,2.2 "></polyline> <polyline class="st0" points="22.5,9.4 22.8,9.2 23.7,9 23.9,9.8 24,10.5 23.6,10.5 23,10.5 22.7,10.1 22.7,9.9 22.6,9.8 "></polyline> <polyline class="st0" points="18,1.8 17.8,2.4 17.6,3 17.2,2.8 16.6,2.6 16.7,2 17,1.3 17.6,1.5 "></polyline> <polyline class="st0" points="20.6,15.6 20.9,16.3 21.2,16.9 21.7,16.7 22.2,16.5 22.4,16.3 22,15.6 21.8,15.1 21.3,15.2 "></polyline> <polyline class="st0" points="22.1,14.8 22.1,15.1 22.3,15.5 22.5,15.9 22.9,16.5 23.3,16.5 23.9,16 23.6,15.4 23.4,14.8 23.2,14.5 22.6,14.6 "></polyline> <path class="st0" d="M22.5,18.7l0.3,0.4l0.5,0.2l0.2,0.4l0.4,0.3l0.4-0.3l0.4-0.5l0.1-0.3l-0.4-0.2l-0.6-0.4l-0.3-0.2l-0.3,0 l-0.4,0.3C22.8,18.4,22.4,18.7,22.5,18.7"></path> <polyline class="st0" points="24.6,18.5 25,18.8 25.5,18.9 26.1,19.1 26.4,18.7 26.5,18.2 26.4,17.9 25.3,17.4 24.8,17.9 24.4,18.3 "></polyline> <path class="st0" d="M23.6,22l0.3-0.5l0.3-0.6l0-0.3l-0.5-0.3l-0.5-0.2L23,19.8l-0.3,0.1l-0.3,0.4L22,20.6l0,0.5l0.3,0.3l0.5,0.1 l0.3,0.4l0.3,0.2C23.3,22.1,23.6,22.1,23.6,22"></path> <polyline class="st0" points="24.4,20.3 24.6,20.6 25.3,20.8 25.8,20.9 26.1,20.5 26.4,19.6 25.9,19.4 25.1,19.2 24.9,19.6 "></polyline> <polyline class="st0" points="21.5,17.1 21.5,17.6 21.9,18.1 22.3,18.5 22.9,18.1 23.3,17.8 23,17.2 22.6,16.7 22.1,16.8 "></polyline> <polyline class="st0" points="19.2,10.1 19.2,10.5 19.4,10.8 19.5,11.4 20.2,11.4 20.8,11 20.8,10.5 20.6,9.7 20.3,9.6 "></polyline> <polyline class="st0" points="19.6,11.7 20.1,11.7 20.6,11.4 20.9,11.5 21.2,12.3 21.1,13 20.8,13.1 20.1,13.2 19.8,12.8 "></polyline> <polyline class="st0" points="20.1,13.6 20.5,13.4 21.3,13.3 21.3,13.7 21.5,14 21.4,14.4 21.6,14.8 21.1,15 20.5,15.1 20.3,14.7 "></polyline> <polyline class="st0" points="21.6,12.6 22.2,12.6 22.6,12.5 22.8,12.3 22.6,11.7 22.6,10.9 21.3,11.2 21.3,11.7 "></polyline> <polyline class="st0" points="23.1,12.2 23.4,12.2 23.7,12.4 24.1,12.4 24.4,12.2 24.2,11.4 24,10.8 22.9,10.8 22.9,11.3 23,11.8 "></polyline> <polyline class="st0" points="21.5,12.9 21.5,13.3 21.7,13.6 21.6,14.1 21.9,14.6 22.6,14.4 23,14.2 22.9,13.8 22.7,12.8 "></polyline> <path class="st0" d="M23.5,14.3l0,0.2l0.1,0.5l0.3,0.2l0.3,0.6l0.5-0.3l0.6-0.6l-0.2-0.4l-0.4-0.8L24.1,14 C24.1,14,23.5,14.3,23.5,14.3"></path> <polyline class="st0" points="23.1,12.7 23.1,13.3 23.4,13.9 23.9,13.7 24.4,13.4 24.4,13.4 24.5,13.1 24.4,12.5 24,12.6 23.6,12.7 "></polyline> <polyline class="st0" points="20.4,18.9 20.5,19.2 20.9,19.4 21.1,19.9 21.6,20.4 22,20.5 22.3,19.9 22.7,19.5 22.4,19.1 21.7,18.2 21.1,18.4 "></polyline> <polyline class="st0" points="26.1,22.8 26.8,22.9 27.6,23 27.9,22.9 27.9,21.5 27.4,21.3 27.2,21.2 26.3,21.3 26.3,22 26.2,22.3 "></polyline> <polyline class="st0" points="26.5,20.9 27.2,21 27.7,21 28.1,21.1 28.2,20.8 28.2,20 27.8,19.9 27.1,19.9 26.6,19.9 26.5,20.3 "></polyline> <polyline class="st0" points="26.7,19.5 27.3,19.6 27.9,19.6 28.1,19.1 28.1,18.2 27.6,18.1 27.1,18.1 26.8,18.1 26.7,18.7 "></polyline> <path class="st0" d="M28.4,19.4l0.6,0l0.5,0l0.7-0.2l-0.1-1c0-0.2-0.7,0-0.7,0L29,18.2l-0.6,0"></path> <polyline class="st0" points="30.6,19.5 30.8,20.3 31.1,20.6 31.8,20.4 32.4,20.3 32.2,19.7 31.9,19 "></polyline> <polyline class="st0" points="28.4,19.7 28.7,19.6 29.7,19.7 30.4,19.6 30.5,20.3 30.3,20.6 29.8,20.9 28.8,21 28.5,20.9 "></polyline> <polyline class="st0" points="25.6,22.8 25.9,22.2 26,21.7 26,21.4 25.6,21.4 25.1,21.3 24.7,21 24.4,21.4 24.3,21.8 23.9,22.2 24.1,22.5 24.6,22.7 25.2,22.9 "></polyline> <polyline class="st0" points="23.2,23.6 23.4,24 24,24.1 24.5,24.3 24.8,24.4 25.1,23.9 25.2,23.5 25.2,23.3 24.9,23.1 24.6,23 24.3,22.9 23.9,22.8 "></polyline> <polyline class="st0" points="19.3,17.1 19.5,17.5 19.6,17.8 20,18.6 20.4,18.6 20.9,18.2 21.3,18 21.3,17.6 21.1,17.3 20.8,16.9 20.5,16.4 19.8,16.7 "></polyline> <polyline class="st0" points="16.7,13.9 16.6,14.4 16.7,15.1 16.9,15.6 17.2,15.9 18.4,15.6 18,14 17.3,13.9 "></polyline> <polyline class="st0" points="23.2,16.8 23.3,17.3 23.6,17.7 24,18.1 24.4,17.9 24.7,17.6 25,17.2 24.9,17 24.4,16.7 24.1,16.3 23.6,16.5 "></polyline> <polyline class="st0" points="25.6,17.2 26,16.9 26.4,16.1 26,15.7 25.7,15.6 25.3,15.2 24.9,15.7 24.6,16 24.5,16.3 24.9,16.5 25.2,16.8 "></polyline> <path class="st0" d="M27,16.3l0.6,0.2l0.6,0.1l0,0.5l0,0.5c0,0.3-0.5,0.2-0.5,0.2l-0.3-0.1l-0.8-0.1l-0.4-0.2l0-0.3l0.5-0.7 l0.1-0.3"></path> <polyline class="st0" points="28.2,22.9 28.8,22.9 29.2,22.8 29.7,22.8 29.8,22.4 29.7,21.6 29.4,21.2 29,21.3 28.2,21.3 "></polyline> <polyline class="st0" points="28.3,16.7 28.4,17.3 28.3,17.8 28.6,18 29.8,18 29.7,17.4 29.7,16.8 29.5,16.5 "></polyline> <polyline class="st0" points="25.8,23.3 25.5,23.6 25.4,24.2 25.4,24.6 25.7,24.8 26.4,24.8 27.1,24.8 27.1,24.2 27,23.3 "></polyline> <polyline class="st0" points="29.9,16.5 30.3,16.3 30.6,16.4 30.8,16.7 31,17 31.2,17.5 30.9,17.6 30.5,17.7 30.2,17.8 29.9,16.9 "></polyline> <polyline class="st0" points="31.6,17.5 31.9,17.1 32.3,16.8 32.5,17 32.8,17.4 33,17.7 32.8,18 32.4,18.2 32.1,18.4 31.7,17.8 "></polyline> <polyline class="st0" points="27.5,23.3 27.4,23.7 27.4,24.7 28,24.8 28.8,24.7 28.6,24 28.5,23.3 "></polyline> <polyline class="st0" points="29.1,24.7 29.7,24.6 30.3,24.5 30.3,24.2 30.1,23.6 30.1,23.1 29.6,23.2 28.8,23.2 28.8,23.5 28.9,24.1 "></polyline> <polyline class="st0" points="19.2,16.7 19.7,16.5 20.2,16.2 20.4,16 20.1,15 19.7,15.1 19.4,15.2 18.6,15.3 18.8,16 "></polyline> <polyline class="st0" points="22.9,23.7 23.3,23.1 23.7,22.7 23.7,22.4 22.8,22 22.5,21.9 22.3,22.2 21.9,22.6 21.8,23 22.2,23.3 "></polyline> <polyline class="st0" points="18,12.8 18.1,13.4 18.3,13.8 18.5,14.3 18.5,15 19.1,14.9 19.6,14.8 20,14.8 19.9,13.9 19.7,13.1 19.3,12.5 19,12.7 18.5,12.8 "></polyline> <path class="st0" d="M19,17.5l0.3,0.4l0.5,0.8l-0.5,0.2l-0.8,0.6l-0.3-0.4l-0.1-0.6l-0.3-0.4l0.5-0.3C18.3,17.8,18.9,17.5,19,17.5"></path> <polyline class="st0" points="31.4,20.9 31.6,21.5 31.8,22 32,22.3 32.5,22.2 33.2,21.8 32.9,21.2 32.6,20.6 "></polyline> <polyline class="st0" points="30.4,23.1 30.4,23.5 30.5,24 30.7,24.5 31.5,24.2 32.2,24.1 32,23.6 31.7,22.9 31.3,22.8 30.8,23 "></polyline> <polyline class="st0" points="32.1,22.7 32.2,23.1 32.3,23.5 32.5,24 33.1,23.9 33.9,23.6 34.5,23.3 33.9,22.5 33.8,22.2 33.6,22.1 32.8,22.4 "></polyline> <path class="st0" d="M17.5,17.6l0.5,0.1l0.6-0.3l0.4-0.2l-0.2-0.5l-0.4-0.9L18,15.9l-0.7,0.3l0,0.5C17.3,16.7,17.5,17.7,17.5,17.6"></path> <polyline class="st0" points="17.8,11.1 18.2,10.9 18.6,10.8 18.9,10.7 19.1,11.1 19.2,11.7 19.3,12.1 19,12.2 18.7,12.5 18.1,12.6 17.9,12.4 17.8,11.8 "></polyline> <polyline class="st0" points="8.7,5 8.9,5.6 9.2,6 9.4,6.1 9.9,6 10.4,5.8 10.8,5.6 10.8,5.2 10.8,4.7 10.5,4.3 10.1,4.5 9.6,4.6 "></polyline> <path class="st0" d="M8.6,4.8L9,4.5l0.5-0.1l0-0.5L9.2,3.2c-0.1-0.2-0.5,0-0.5,0L8.3,3.3L8,3.6L7.9,3.8l0.3,0.6"></path> <polyline class="st0" points="10,0.9 10.2,1.5 10.2,2.1 10.5,2.1 10.7,2.1 11.6,2 11.6,0.7 11,0.7 "></polyline> <polyline class="st0" points="12.9,3.9 13,4.8 13,5.1 13.4,5.1 13.8,5.4 14.6,5.5 14.7,4.9 14.9,4.2 14.2,4.1 13.8,4 13.5,3.9 "></polyline> <polyline class="st0" points="13.6,0.6 13.5,1 13.4,1.5 13.4,1.9 14,2.1 15,2.3 15.1,1.6 15.2,0.9 14.8,0.8 "></polyline> <polyline class="st0" points="15.5,0.9 16,1 16.6,1.2 16.5,2.1 16.4,2.5 15.9,2.5 15.2,2.3 15.3,1.5 "></polyline> <polyline class="st0" points="8.3,1.5 8.5,1.9 8.8,2.7 9.5,2.4 10,2.2 9.9,1.7 9.9,1.4 9.6,1.1 "></polyline> <polyline class="st0" points="6,13.9 5.8,13.4 5.7,12.8 5.7,12.4 6.1,12.4 6.5,12.3 7.2,12.3 7.3,12.8 7.6,13.7 7.3,13.7 6.6,13.9 "></polyline> <path class="st0" d="M6.1,14.3l0.6-0.2l0.3,0L7.5,14l0.2,0.3l0.1,0.5l0.3,0.5l-0.6,0.2L7,15.9l-0.3-0.2l-0.4-0.9 C6.3,14.8,6.2,14.3,6.1,14.3"></path> <polyline class="st0" points="7.5,12.3 7.6,12.8 7.7,13.4 7.9,13.7 8.4,13.4 8.8,13.3 8.8,12.6 8.8,12.2 8.5,12.2 "></polyline> <polyline class="st0" points="30,21.2 30,21.7 30.1,22 30.1,22.7 30.5,22.7 30.9,22.5 31.6,22.4 31.5,22 31.3,21.4 31,20.9 30.5,20.8 "></polyline> <polyline class="st0" points="10.2,8 10.4,8.6 10.8,9.1 11.2,8.9 11.7,8.8 12.3,8.7 12.2,8.1 12,7.6 11.7,7.5 11.2,7.6 "></polyline> <polyline class="st0" points="12.4,7.4 12.4,7.8 12.5,8.1 12.5,8.6 12.8,8.8 13.5,8.7 13.7,8.4 13.9,7.5 "></polyline> <polyline class="st0" points="9.4,2.8 9.6,3.2 9.6,3.7 9.7,4.2 10.3,4.1 10.8,4 11.2,3.8 11,3.4 11,2.8 10.8,2.3 10.3,2.5 "></polyline> <polyline class="st0" points="11.2,2.4 11.3,2.8 11.3,3.1 11.4,3.3 11.4,3.7 12,3.8 12.5,3.6 12.9,3.6 13,3.4 12.9,2.9 12.7,2.3 12.2,2.3 11.9,2.3 "></polyline> <polyline class="st0" points="14.9,3.8 15,3.4 15,3.1 15.1,2.6 14.4,2.5 13.7,2.3 13.4,2.2 13.2,2.3 13.2,2.7 13.2,3 13.3,3.5 13.6,3.6 14.1,3.8 "></polyline> <polyline class="st0" points="11.9,0.6 11.9,0.9 11.9,1.5 11.9,1.9 12.2,1.9 12.7,2 12.9,1.8 13.2,1.9 13.3,1.4 13.3,0.8 13.3,0.7 13,0.5 12.7,0.5 12.4,0.6 "></polyline> <polyline class="st0" points="11,4.2 11,4.6 11,4.9 11.2,5.2 11.3,5.4 11.7,5.3 12.1,5.2 12.6,5.1 12.7,4.9 12.6,3.9 12.3,3.9 11.7,4 11.4,4 "></polyline> <polyline class="st0" points="10.8,11.5 10.8,11.8 11,11.9 11.3,12.3 11.5,12.4 11.8,12 12.5,11.6 12.3,11.3 12.1,11 11.7,10.7 11.3,10.9 "></polyline> <polyline class="st0" points="11.9,10.5 12.2,10.9 12.5,11.2 12.8,11 13.1,10.7 13.2,10.5 12.9,10.4 12.5,10.4 "></polyline> <polyline class="st0" points="13.5,10.6 13.3,10.8 13,11.1 12.8,11.3 12.8,11.5 13,11.8 13.2,12 13.4,12.2 13.5,12.5 13.9,12.3 14.1,12 14.2,11.7 14.4,11.6 14.4,11.4 14.1,11.1 13.9,10.8 "></polyline> <polyline class="st0" points="10.4,13.1 10.7,13.2 10.9,13 11,12.8 11.3,12.7 11.2,12.5 11,12.3 10.9,12 10.7,12 10.5,12.1 "></polyline> <polyline class="st0" points="11.4,12.8 11.3,12.9 11.1,13.1 11,13.3 10.8,13.4 10.7,13.5 10.7,13.7 10.9,13.9 11.1,14.1 11.2,14.3 11.5,14.4 11.8,14.3 12,14 12.3,13.8 12.3,13.6 12.1,13.5 11.7,13.2 "></polyline> <path class="st0" d="M13.8,12.6l0.2,0.2l0.3,0.2l0.3,0.1l0.1-0.3l0-0.3l0-0.3l-0.1-0.3C14.4,11.8,13.8,12.6,13.8,12.6"></path> <polyline class="st0" points="13.5,12.8 13.7,12.8 14,13.1 14.1,13.3 14.3,13.4 14.1,13.7 14,13.9 13.7,14.2 13.4,14.1 13.3,13.8 12.9,13.6 13,13.4 13.3,13.1 "></polyline> <path class="st0" d="M12.6,13.8l-0.3,0.3l-0.2,0.1l-0.3,0.3l0.4,0.3l0.3,0.1l0.4-0.1l0.3-0.1l0.1-0.3l-0.3-0.3l-0.2-0.2 C12.9,13.9,12.7,13.8,12.6,13.8"></path> <polyline class="st0" points="11.3,5.8 11.3,6 11.3,6.2 11.5,6.5 11.6,7.1 12,7.1 12.7,7.1 12.9,7.1 13,6.8 12.9,6.3 12.8,6 12.8,5.6 12.3,5.5 11.7,5.6 "></polyline> <polyline class="st0" points="13.1,5.7 13.1,6 13.2,6.5 13.2,6.9 13.3,7.1 13.9,7.2 14.4,7.2 14.7,7.2 14.9,6.8 15,6.4 15,6 14.7,5.7 14.4,5.7 14,5.7 "></polyline> <path class="st0" d="M10.3,19l0.4,0.2l0.7,0.1l0.7,0.1l0.1-0.4c0,0,0.2-0.1,0.2-0.2c0-0.1,0-0.9,0-0.9l-0.3,0l-0.3-0.1l-0.2-0.1 l-0.8-0.1L10.6,18"></path> <polyline class="st0" points="8.6,9.3 8.4,9.7 8.2,9.9 8,10.6 8.6,10.8 9.2,10.9 9.5,10.5 9.6,10.1 9.4,9.9 9.1,9.6 "></polyline> <polyline class="st0" points="7.9,9.8 7.8,10.1 7.7,10.5 7.4,10.8 6.8,10.5 6.2,10.3 6.4,9.9 6.6,9.3 6.9,9 7.3,9.3 7.7,9.5 "></polyline> <polyline class="st0" points="7.3,11 6.8,10.9 6.1,10.6 5.9,11 5.8,11.5 5.7,12 6,12.1 6.4,12.1 6.8,12.1 7,12 "></polyline> <polyline class="st0" points="6,10.3 5.8,10.8 5.6,11.5 5.3,11.6 4.8,11.4 4.6,11.3 4.3,11.3 4.3,10.8 4.5,10.5 4.5,10.2 4.7,9.7 4.9,9.7 5.4,10 "></polyline> <polyline class="st0" points="4.3,9.8 3.7,9.6 3.1,9.3 2.9,9.6 2.7,10.2 2.7,10.5 2.7,10.7 3.9,11.2 4,11 "></polyline> <polyline class="st0" points="4,11.5 3.4,11.3 2.8,11.2 2.5,11.3 2.4,11.9 2.6,12.2 2.5,12.4 3.2,12.5 3.8,12.6 3.9,12.2 "></polyline> <polyline class="st0" points="3.8,13.9 3.4,14 3.1,14.1 2.6,14.2 2.5,13.8 2.4,13.3 2.4,13 2.5,12.8 2.8,12.8 3.3,12.9 3.5,12.9 3.7,13 3.8,13.2 3.8,13.4 3.7,13.5 3.9,13.7 "></polyline> <polyline class="st0" points="6.6,8.7 6.3,9.3 6.2,9.6 6,10 5.7,9.8 5.4,9.6 4.9,9.5 4.9,9.2 5,9.1 5.1,8.9 5.2,8.6 5.3,8.2 5.5,8.1 5.8,8.3 "></polyline> <polyline class="st0" points="9,11.3 8.9,11.1 8.6,11 8.2,10.8 7.7,10.8 7.5,11.2 7.5,11.6 7.5,12 8.1,12 8.9,12 "></polyline> <polyline class="st0" points="5.8,7.8 6.3,8.2 6.8,8.5 7,8.2 7.2,8.1 7.4,7.9 7.6,7.7 7.2,7.2 6.8,6.8 6.6,6.8 6.2,7.1 6,7.4 5.8,7.7 "></polyline> <polyline class="st0" points="5.2,3.3 5.2,3.5 5.5,3.8 5.8,4.1 6,4.4 6.5,4.3 6.8,4 7.1,3.8 7,3.3 6.6,2.7 6.4,2.6 6,2.8 5.5,3.1 "></polyline> <path class="st0" d="M5.7,4.7c0,0,0.1,0,0-0.1c0-0.1-0.2-0.3-0.2-0.3L5.1,3.8L4.9,3.6L4.7,3.5L4.5,3.8L4.1,4.1L3.7,4.4L3.6,4.6 l0.1,0.3l0.4,0.2l0.2,0.3l0.2,0.2l0.1-0.1l0.3-0.2L5.5,5"></path> <polyline class="st0" points="7.1,5.8 6.9,5.4 6.7,5.1 6.6,4.9 6.4,4.9 6.3,5.1 5.8,5.2 5.5,5.2 5.2,5.6 5.7,6.3 6.3,6.7 6.6,6.5 7,6.1 "></polyline> <polyline class="st0" points="4.9,6 4.5,6.4 4.4,6.6 4.3,6.9 4.7,7 4.9,7.3 5.3,7.6 5.6,7.5 5.8,7.2 6,7 6,6.8 5.7,6.6 5.5,6.4 5.3,6.2 "></polyline> <polyline class="st0" points="4.1,7 3.9,7.3 3.7,7.8 3.5,8.3 3.3,8.7 3.3,9 3.4,9.2 3.8,9.4 4.2,9.5 4.5,9.7 4.7,9.2 4.8,8.8 4.9,8.5 5.1,8.1 5.1,7.9 4.9,7.7 4.6,7.4 "></polyline> <polyline class="st0" points="8.4,5.1 8.3,5.2 8,5.4 7.7,5.6 7.3,5.7 7.1,5.4 7,4.9 6.8,4.6 6.8,4.4 7.2,4.3 7.5,4.1 7.6,3.9 7.9,4.3 8.2,4.6 "></polyline> <polyline class="st0" points="8.5,5.5 8.1,5.6 7.9,5.8 7.7,6 7.4,6.1 7,6.5 7,6.6 7.2,6.9 7.4,7.1 7.6,7.4 7.8,7.5 8.1,7.5 8.4,7.3 8.6,7 9.1,6.6 8.8,6 "></polyline> <polyline class="st0" points="8.2,7.7 7.8,7.8 7.6,8.2 7.2,8.4 7,8.7 7.3,9 7.7,9.3 8,9.5 8.2,9.5 8.4,9.3 8.8,8.9 8.9,8.6 8.7,8.2 "></polyline> <polyline class="st0" points="10,8.3 9.8,8.3 9.5,8.5 9.3,8.8 9.1,8.9 8.9,9.1 9.3,9.5 9.7,9.9 10,9.8 10.2,9.5 10.6,9.3 10.6,9.1 10.3,8.8 "></polyline> <polyline class="st0" points="9.3,6.9 9.1,7 8.8,7.2 8.5,7.5 8.7,7.6 8.8,7.9 9.1,8.3 9.3,8.4 9.5,8.2 9.9,8 9.6,7.4 "></polyline> <path class="st0" d="M2.8,9L2.5,8.8L1.9,8.7L1.5,8.4L1.2,8.6L1,9.2L0.9,9.6l0.5,0.2L1.9,10l0.5,0.1l0.1-0.3l0.1-0.2l0.1-0.3 C2.7,9.3,2.8,9,2.8,9"></path> <polyline class="st0" points="3.4,7.5 3.1,7.3 2.7,7.1 2.3,6.9 2.1,6.7 1.8,7.2 1.6,7.6 1.5,8.1 1.8,8.3 2.3,8.5 2.7,8.6 2.9,8.7 "></polyline> <polyline class="st0" points="3.4,4.9 3.1,5.1 2.8,5.5 2.6,5.9 2.3,6.6 2.7,6.8 3.1,7 3.7,7.2 3.8,6.9 3.9,6.6 4.1,6.4 4.4,5.8 4.1,5.6 "></polyline> <polyline class="st0" points="2.3,10.3 1.8,10.1 1.3,10 0.9,9.9 0.8,10.1 0.7,10.6 0.6,11 1.1,11.2 1.4,11.2 2.1,11.3 2.3,11.3 2.3,10.9 2.2,10.7 "></polyline> <polyline class="st0" points="2.1,11.5 1.7,11.5 1.3,11.4 0.7,11.3 0.5,11.7 0.5,11.9 0.5,12.2 0.6,12.6 0.6,12.8 0.9,12.8 1.3,12.6 1.6,12.6 2,12.5 2.1,12.5 2.2,12.3 2.1,12 "></polyline> <polyline class="st0" points="5.5,13.7 5.1,13.8 4.5,13.8 4.1,13.9 4.1,13.4 4,13 4.1,12.8 4.5,12.8 5,12.8 5.3,12.8 5.4,12.9 5.4,13.2 5.5,13.4 "></polyline> <polyline class="st0" points="5.5,11.8 5.2,11.7 4.8,11.6 4.3,11.5 4.2,11.7 4.1,12.1 4.1,12.5 4.2,12.6 4.5,12.6 4.8,12.6 5.2,12.6 5.4,12.5 "></polyline> <polyline class="st0" points="1.8,12.9 1.4,12.9 0.6,13 0.4,13.2 0.5,13.6 0.6,14 1,14.1 2.1,13.8 2.1,13.6 2,13.4 2,13.1 "></polyline> <path class="st0" d="M20.5,21.8c0.3,0.3,0.7,0.7,0.9,0.8c0,0,0.8-0.9,0.8-0.9c-0.3-0.3-0.7-0.7-0.8-0.9c0,0-0.8,0.6-1,0.8"></path> <polyline class="st0" points="18.8,19.7 19,20.1 19.1,20.5 19.5,20.6 19.7,21 20.2,21.3 20.7,21 20.9,20.6 21.2,20.4 21.1,20.2 20.7,19.9 20.2,19.6 19.9,19.1 19.7,19.1 19.2,19.4 "></polyline> <polyline class="st0" points="36.4,22.3 35.7,22.8 34.9,23.3 34,22.1 35.5,21.1 "></polyline> <polyline class="st0" points="36.9,19.3 36.7,19.6 36.4,19.8 36,20.2 35.7,20.5 35.5,20.8 35.1,20.3 34.7,19.8 34.4,19.5 34.8,19.2 35.3,18.7 35.6,18.3 35.8,18.2 36.5,18.9 "></polyline> <polyline class="st0" points="33.5,14.2 33.3,14.9 33,15.4 32.7,15.7 32.5,15.6 31.9,15 31.9,14.7 32.2,14.2 32.5,13.9 32.5,13.6 "></polyline> <polyline class="st0" points="31.6,15.2 31.9,15.4 32.5,16.1 32.3,16.3 32.1,16.6 31.9,16.7 31.7,17 31.5,17.1 31.2,16.6 31,16.5 30.8,16.1 30.9,16 31.2,15.6 "></polyline> <polyline class="st0" points="37.9,20.8 37.6,20.6 37.4,20.4 37.2,20.2 36.9,19.9 36.7,19.8 36.5,20.2 36.1,20.6 35.8,20.8 35.7,21.1 35.9,21.4 36.3,21.7 36.5,22 36.6,22.2 36.9,22 37.2,21.7 37.3,21.5 37.6,21.2 37.8,20.9 "></polyline> <polyline class="st0" points="34.3,16.5 34.2,16.8 34,16.8 33.8,17.1 33.6,17.2 33.4,17.4 33.3,17.5 32.9,17.1 32.7,16.8 32.4,16.7 32.4,16.5 32.6,16.4 32.7,16.2 32.8,16.1 33,16 33.2,15.8 33.3,15.9 33.6,15.9 33.8,16 33.9,16.2 "></polyline> <path class="st0" d="M39,19.1l-0.4,0.8l-0.4,0.5L38,20.6l-0.3-0.1l-0.2-0.4l-0.3-0.2l-0.3-0.2l0.1-0.2l0.4-0.6l0.2-0.5l0.2,0 l0.3,0.3C38.6,18.8,38.6,19,39,19.1"></path> <polyline class="st0" points="36,17.2 35.8,17 35.5,17 35,16.7 34.8,16.4 34.6,16.4 34.5,16.7 34.2,17 33.7,17.3 34,17.6 34.3,17.9 34.9,18.4 35.1,18.5 35.4,18.1 35.7,17.7 35.9,17.5 "></polyline> <polyline class="st0" points="39.2,18.8 39.5,18.3 39.6,18 39.9,17.4 39.5,17.2 39,16.9 38.5,16.8 38.3,16.9 38.2,17.2 38,17.5 37.9,17.8 37.8,18.1 38,18.3 38.3,18.4 38.7,18.6 38.9,18.8 39.1,18.9 "></polyline> <polyline class="st0" points="37.8,17.3 37.8,17.6 37.6,18 37.4,18.3 37.2,18.6 37,18.7 36.8,18.6 36.4,18.5 36.2,18.3 35.8,18 35.9,17.8 36.3,17.3 36.5,16.9 36.7,16.7 37,16.8 37.4,17.1 "></polyline> <polyline class="st0" points="36.9,15.1 36.7,15.4 36.5,15.9 36.3,16.3 36.2,16.6 36.1,16.8 36,16.9 35.6,16.7 35.4,16.6 35.1,16.4 34.8,16.2 34.8,16 35.1,15.5 35.3,15.1 35.4,14.8 35.6,14.6 35.7,14.5 35.8,14.5 36.1,14.6 36.3,14.7 36.6,14.8 36.7,15 "></polyline> <polyline class="st0" points="38.6,15.7 38.5,16 38.4,16.3 38.1,16.6 38.1,16.8 38,17.1 37.8,17 37.4,16.8 37.1,16.7 36.7,16.5 36.7,16.4 36.8,16 37,15.6 37.2,15.3 37.3,15.2 37.6,15.2 38.1,15.5 "></polyline> <polyline class="st0" points="35.3,20.9 35,20.6 34.8,20.3 34.6,20.1 34.3,19.8 34,19.9 33.4,20.1 32.9,20.5 33,20.7 33.2,21.1 33.3,21.4 33.5,21.6 33.6,21.8 33.7,21.9 34.4,21.7 34.7,21.4 35.1,21.1 "></polyline> <path class="st0" d="M40,17l-0.3-0.1l-0.5-0.1l-0.5-0.4l0-0.4c0,0,0-0.1,0.1-0.2c0.1-0.1,0.2-0.4,0.2-0.4l0.2-0.3l0-0.2l0.1-0.1 l0.4,0l0.4,0.2l0.3,0.1l0.1,0.4l-0.1,0.6l-0.2,0.2l-0.1,0.5"></path> <path class="st0" d="M37.1,14.7l-0.4,0l-0.3-0.2l-0.3-0.2l-0.3-0.1l0.1-0.2l0.2-0.7l0.6,0.1l0.8,0.1l0,0.3l-0.1,0.4l-0.2,0.3 C37.2,14.4,37,14.6,37.1,14.7"></path> <polyline class="st0" points="38.6,15.4 38.4,15.4 38.1,15.3 37.9,15.1 37.3,14.9 37.3,14.7 37.5,14.4 37.6,14.1 37.7,13.6 37.9,13.6 38.2,13.8 38.9,13.5 39,13.8 38.9,14.1 38.9,14.6 "></polyline> <path class="st0" d="M34.8,18.7l-0.1-0.2L34.2,18l-0.5-0.4c0-0.1-0.3,0.1-0.3,0.1L33,18.1l-0.6,0.5l-0.2,0.2l0,0.3l0.1,0.3l0.1,0.3 l0.2,0.2l0.2,0.4l0.5-0.2l0.4-0.3l0.4-0.1l0.5-0.4l0.2-0.2"></path> <polyline class="st0" points="27,6.6 27.1,6.9 26.9,7.1 26.7,7.3 26.3,7.5 26,7.6 25.7,7.3 25.4,6.9 25.2,6.6 25.5,6.4 26,6.1 26.6,5.8 26.8,6.2 "></polyline> <polyline class="st0" points="26.9,9 26.5,8.6 26.2,8.2 26.2,8 26.5,7.7 27.3,7.3 27.8,7.2 27.9,7.4 28,7.9 28.1,8.5 27.8,8.7 27.5,8.9 27.3,8.9 "></polyline> <polyline class="st0" points="24.3,5 24.7,4.7 25.2,4.4 25.4,4.5 25.6,5.2 25.8,5.8 25.6,6.1 25.3,6.2 25,6.4 "></polyline> <polyline class="st0" points="25.5,3.9 25.2,4.2 24.8,4.3 24.4,4.7 24.3,4.5 24.1,4.3 23.9,4 23.5,3.6 23.9,3.4 24.2,3.2 24.7,2.9 24.9,2.8 25.2,3.3 "></polyline> <polyline class="st0" points="25.7,3.8 25.4,3.3 25.2,2.7 25.5,2.5 27.1,2.4 27.2,2.8 27.2,3.3 27.1,3.6 26.6,3.6 "></polyline> <polyline class="st0" points="26.1,5.6 25.9,5.2 25.7,4.8 25.6,4.4 25.8,4.1 26.3,4 26.9,3.8 27.2,3.8 27.2,4.2 27.4,5.1 27.1,5.3 26.8,5.5 "></polyline> <path class="st0" d="M32.6,6.5l-0.3,0.7l-0.4,0.6l-0.6-0.3l-0.8-0.3l0.3-0.6l0.3-0.7L31.8,6l0.4,0.3C32.2,6.3,32.7,6.3,32.6,6.5"></path> <polyline class="st0" points="24.7,2.6 24.3,2.8 24.1,3.1 23.6,3.4 23.3,2.7 22.8,2 23.8,1.4 24.4,1.2 24.5,1.9 "></polyline> <polyline class="st0" points="35.8,2.8 35.6,3 35.4,3.4 34.8,3.7 34.2,3.3 33.8,3.1 34.1,2.6 34.5,1.9 35,2.2 35.6,2.6 "></polyline> <polyline class="st0" points="24.6,1.2 24.8,1.8 24.9,2.4 25.3,2.2 25.9,2.1 25.9,1.5 25.7,0.8 25,1 "></polyline> <polyline class="st0" points="33.4,5.2 33.2,5.7 32.9,6.1 32.7,6.2 32.2,6 31.8,5.8 31.3,5.6 31.4,5.2 31.5,4.7 31.7,4.3 32.2,4.6 32.6,4.7 "></polyline> <path class="st0" d="M33.6,4.9l-0.3-0.2l-0.5-0.2l0-0.5l0.3-0.7c0.1-0.2,0.5,0,0.5,0L34,3.6l0.3,0.3L34.4,4L34,4.6"></path> <polyline class="st0" points="32.5,1 32.4,1.6 32.2,2.1 31.9,2.1 31.8,2.1 30.9,1.9 31,0.7 31.6,0.7 "></polyline> <polyline class="st0" points="29.4,3.7 29.3,4.6 29.2,4.9 28.8,4.9 28.5,5.1 27.6,5.1 27.6,4.5 27.5,3.8 28.1,3.8 28.5,3.8 28.8,3.6 "></polyline> <polyline class="st0" points="29,0.4 29.1,0.8 29.2,1.2 29.1,1.6 28.5,1.8 27.5,1.9 27.5,1.2 27.5,0.6 27.9,0.4 "></polyline> <polyline class="st0" points="27.1,0.5 26.7,0.6 26,0.7 26.1,1.6 26.1,2 26.6,2 27.3,1.9 27.3,1.1 "></polyline> <polyline class="st0" points="34.2,1.7 34,2.1 33.6,2.9 33,2.6 32.4,2.3 32.6,1.8 32.7,1.5 33,1.2 "></polyline> <polyline class="st0" points="35.4,14.3 35.5,13.7 35.7,13.2 35.8,12.8 35.4,12.8 35,12.6 34.3,12.6 34.2,13 33.8,13.9 34.1,13.9 34.7,14.2 "></polyline> <path class="st0" d="M35.2,14.7l-0.5-0.2l-0.3-0.1l-0.4-0.1l-0.3,0.3l-0.2,0.5l-0.3,0.5l0.5,0.2l0.5,0.4l0.4-0.2l0.4-0.8 C35,15.1,35.1,14.7,35.2,14.7"></path> <polyline class="st0" points="34,12.5 33.8,13 33.7,13.6 33.5,13.9 33,13.6 32.6,13.4 32.7,12.8 32.8,12.4 33,12.4 "></polyline> <polyline class="st0" points="31.8,8.1 31.5,8.6 31,9.1 30.6,8.9 30.2,8.7 29.6,8.5 29.7,8 30,7.5 30.3,7.4 30.8,7.6 "></polyline> <polyline class="st0" points="29.7,7.2 29.6,7.6 29.5,7.9 29.4,8.4 29.1,8.6 28.4,8.5 28.2,8.1 28.1,7.2 "></polyline> <polyline class="st0" points="33,2.9 32.8,3.3 32.7,3.8 32.5,4.3 32,4.1 31.5,3.9 31.1,3.7 31.3,3.3 31.4,2.8 31.6,2.3 32.2,2.5 "></polyline> <polyline class="st0" points="31.2,2.4 31.2,2.7 31.1,3 31,3.3 31,3.7 30.4,3.7 29.9,3.4 29.4,3.4 29.4,3.2 29.5,2.8 29.8,2.1 30.3,2.2 30.6,2.2 "></polyline> <polyline class="st0" points="27.5,3.5 27.4,3 27.4,2.8 27.4,2.3 28.1,2.1 28.8,2 29.1,2 29.3,2.1 29.3,2.5 29.2,2.8 29.1,3.3 28.7,3.4 28.3,3.5 "></polyline> <polyline class="st0" points="30.7,0.5 30.7,0.8 30.7,1.4 30.6,1.8 30.3,1.8 29.8,1.8 29.7,1.7 29.3,1.7 29.3,1.2 29.4,0.6 29.4,0.5 29.7,0.4 30,0.4 30.3,0.4 "></polyline> <polyline class="st0" points="31.3,4.2 31.3,4.5 31.2,4.8 31,5.2 30.8,5.3 30.5,5.2 30.1,5.1 29.6,5 29.5,4.7 29.8,3.7 30.1,3.8 30.6,3.9 30.9,3.9 "></polyline> <polyline class="st0" points="30.5,11.6 30.5,11.9 30.2,12 29.9,12.4 29.7,12.4 29.4,12 28.7,11.6 28.9,11.3 29.2,11 29.6,10.7 30,11 "></polyline> <polyline class="st0" points="29.4,10.5 29.1,10.9 28.7,11.2 28.4,10.9 28.1,10.6 28,10.4 28.4,10.3 28.8,10.3 "></polyline> <polyline class="st0" points="27.7,10.5 27.9,10.6 28.2,11 28.3,11.2 28.4,11.4 28.1,11.7 28,11.9 27.7,12.1 27.5,12.3 27.2,12.1 27,11.7 26.9,11.4 26.7,11.3 26.8,11.1 27,10.9 27.3,10.6 "></polyline> <polyline class="st0" points="30.7,13.2 30.5,13.3 30.2,13.1 30.2,12.9 29.9,12.7 29.9,12.5 30.2,12.3 30.4,12.1 30.6,12.1 30.8,12.2 "></polyline> <polyline class="st0" points="29.7,12.8 29.9,12.9 30,13.1 30.2,13.3 30.3,13.5 30.5,13.6 30.4,13.8 30.2,14 29.9,14.1 29.8,14.3 29.5,14.4 29.2,14.3 29.1,14 28.7,13.8 28.7,13.5 29,13.4 29.3,13.2 "></polyline> <path class="st0" d="M27.3,12.4L27,12.6l-0.3,0.2l-0.3,0.1l-0.1-0.3l0.1-0.3l0-0.3l0.1-0.3C26.7,11.6,27.3,12.4,27.3,12.4"></path> <polyline class="st0" points="27.5,12.6 27.3,12.6 26.9,12.9 26.7,13.1 26.5,13.2 26.7,13.6 26.8,13.9 27.1,14.2 27.4,14.1 27.6,13.8 28.1,13.6 28,13.3 27.7,12.9 "></polyline> <path class="st0" d="M28.4,13.8l0.3,0.3l0.2,0.2l0.3,0.3l-0.5,0.2l-0.4,0l-0.4-0.2l-0.3-0.1l-0.1-0.3l0.3-0.2l0.3-0.1 C28.1,13.9,28.3,13.7,28.4,13.8"></path> <polyline class="st0" points="30.8,5.7 30.9,5.9 30.8,6.2 30.6,6.5 30.4,7 30.1,7 29.4,6.9 29.2,6.9 29.1,6.6 29.2,6.1 29.3,5.8 29.4,5.4 29.9,5.4 30.5,5.5 "></polyline> <polyline class="st0" points="29,5.4 29.1,5.8 28.9,6.3 28.9,6.7 28.7,6.9 28.2,6.9 27.7,6.9 27.4,6.9 27.2,6.5 27.2,6.1 27.2,5.6 27.5,5.4 27.8,5.3 28.2,5.4 "></polyline> <polyline class="st0" points="33.1,9.5 33.3,9.9 33.5,10.1 33.7,10.8 33.1,11 32.5,11.1 32.2,10.5 32.1,10.2 32.3,10 32.7,9.7 "></polyline> <polyline class="st0" points="33.8,10 33.9,10.4 34,10.8 34.3,11.1 34.9,10.9 35.5,10.7 35.3,10.2 35.2,9.7 34.9,9.3 34.5,9.6 34.1,9.8 "></polyline> <polyline class="st0" points="34.3,11.3 34.8,11.2 35.5,10.9 35.7,11.4 35.8,11.9 35.8,12.4 35.5,12.5 35.1,12.5 34.7,12.4 34.5,12.3 "></polyline> <polyline class="st0" points="35.7,10.7 35.8,11.2 36,11.9 36.2,12 36.7,11.9 36.9,11.9 37.3,11.8 37.3,11.4 37.2,11 37.1,10.7 37,10.2 36.8,10.2 36.3,10.4 "></polyline> <polyline class="st0" points="37.3,10.4 38,10.2 38.7,9.9 38.8,10.3 38.9,10.8 38.9,11.2 38.9,11.4 37.6,11.8 37.5,11.5 "></polyline> <polyline class="st0" points="37.6,12 38.1,11.9 38.7,11.8 39,12 39,12.6 38.9,12.9 38.9,13.1 38.2,13.1 37.6,13.2 37.6,12.8 "></polyline> <polyline class="st0" points="37.5,14.5 37.9,14.6 38.2,14.7 38.6,14.8 38.8,14.4 38.9,14 38.9,13.7 38.9,13.5 38.6,13.4 38.1,13.5 37.8,13.5 37.7,13.5 37.6,13.8 37.5,14 37.6,14.1 37.4,14.3 "></polyline> <polyline class="st0" points="35.2,9 35.4,9.6 35.5,10 35.6,10.3 36,10.2 36.4,10.1 36.8,10 36.9,9.7 36.7,9.5 36.7,9.4 36.6,9 36.5,8.7 36.4,8.5 36,8.7 "></polyline> <polyline class="st0" points="32.6,11.4 32.7,11.2 33.1,11.1 33.5,11 34,11 34.1,11.5 34.1,11.8 34.1,12.2 33.4,12.2 32.7,12.1 "></polyline> <polyline class="st0" points="36.1,8.2 35.5,8.6 35,8.8 34.9,8.5 34.7,8.4 34.5,8.2 34.4,8 34.7,7.5 35.2,7.2 35.4,7.2 35.8,7.5 36,7.8 36.1,8.1 "></polyline> <polyline class="st0" points="37.1,3.8 37,4 36.8,4.2 36.4,4.6 36.2,4.8 35.8,4.6 35.4,4.4 35.1,4.1 35.3,3.6 35.8,3.1 36,3 36.4,3.2 36.8,3.6 "></polyline> <path class="st0" d="M36.4,5.1c0,0-0.1,0,0-0.1c0-0.1,0.3-0.3,0.3-0.3l0.4-0.4l0.2-0.2l0.3,0l0.1,0.3l0.4,0.3L38.5,5l0,0.2 l-0.1,0.3l-0.4,0.1l-0.3,0.3l-0.3,0.2l-0.1-0.2L37,5.7l-0.4-0.2"></path> <polyline class="st0" points="35,6.1 35.2,5.8 35.4,5.5 35.6,5.2 35.7,5.3 35.8,5.5 36.3,5.6 36.6,5.7 36.9,6.1 36.3,6.7 35.7,7.1 35.4,6.8 35,6.4 "></polyline> <polyline class="st0" points="37.2,6.5 37.5,6.9 37.6,7.2 37.6,7.4 37.2,7.6 37,7.8 36.5,8.1 36.3,7.9 36.1,7.6 36,7.4 36,7.2 36.3,7 36.5,6.9 36.8,6.7 "></polyline> <polyline class="st0" points="37.8,7.6 38,7.9 38.2,8.4 38.3,8.9 38.5,9.4 38.4,9.6 38.3,9.9 37.9,10 37.5,10.1 37.2,10.2 37,9.7 37,9.3 36.9,9 36.8,8.6 36.8,8.3 36.9,8.2 37.3,7.9 "></polyline> <polyline class="st0" points="33.8,5.3 33.9,5.4 34.2,5.6 34.4,5.9 34.8,6 35,5.7 35.2,5.3 35.4,5 35.4,4.8 35,4.6 34.8,4.3 34.6,4.1 34.3,4.5 34,4.8 "></polyline> <polyline class="st0" points="33.6,5.7 34,5.8 34.2,6 34.4,6.3 34.6,6.4 35,6.8 35.1,7 34.8,7.2 34.5,7.4 34.4,7.6 34.2,7.8 33.9,7.7 33.5,7.5 33.4,7.1 33,6.8 33.3,6.2 "></polyline> <polyline class="st0" points="33.8,7.9 34.1,8 34.3,8.4 34.6,8.7 34.9,9 34.5,9.3 34.1,9.6 33.8,9.8 33.6,9.7 33.4,9.4 33.1,9.1 32.9,8.7 33.2,8.4 "></polyline> <polyline class="st0" points="31.9,8.3 32.1,8.4 32.4,8.6 32.5,8.9 32.7,9 32.9,9.3 32.4,9.6 32.1,9.9 31.7,9.9 31.6,9.6 31.2,9.3 31.3,9.1 31.5,8.8 "></polyline> <polyline class="st0" points="32.7,7 32.9,7.1 33.2,7.4 33.4,7.6 33.3,7.8 33.1,8 32.8,8.4 32.6,8.5 32.3,8.3 32.1,8 32.4,7.5 "></polyline> <path class="st0" d="M38.9,9.7l0.3-0.1l0.6-0.1l0.5-0.2l0.2,0.2l0.1,0.6l0.1,0.4l-0.5,0.2l-0.6,0.1l-0.5,0l0-0.3l-0.1-0.2L39,10 C39,10,38.9,9.6,38.9,9.7"></path> <polyline class="st0" points="38.4,8.2 38.8,8 39.2,7.8 39.6,7.7 39.8,7.5 40,8 40.2,8.4 40.3,8.9 40,9.1 39.4,9.2 39,9.3 38.8,9.4 "></polyline> <polyline class="st0" points="38.7,5.6 38.9,5.7 39.3,6.2 39.4,6.7 39.7,7.3 39.2,7.5 38.8,7.7 38.2,7.8 38.2,7.5 38.1,7.2 37.9,6.9 37.7,6.4 37.9,6.2 "></polyline> <polyline class="st0" points="39.3,11 39.8,10.8 40.3,10.8 40.7,10.7 40.8,11 40.9,11.5 40.9,11.9 40.4,12 40.1,12 39.4,12.1 39.3,12 39.2,11.6 39.3,11.4 "></polyline> <polyline class="st0" points="39.4,12.3 39.8,12.3 40.2,12.2 40.8,12.2 40.9,12.6 40.9,12.8 40.9,13.1 40.8,13.5 40.8,13.6 40.5,13.6 40.1,13.4 39.8,13.3 39.4,13.3 39.3,13.2 39.2,13 39.3,12.8 "></polyline> <polyline class="st0" points="35.9,14.1 36.2,14.2 36.8,14.4 37.2,14.5 37.3,14 37.4,13.5 37.3,13.4 36.9,13.3 36.4,13.3 36.1,13.2 36,13.4 36,13.7 35.9,13.9 "></polyline> <polyline class="st0" points="36.1,12.2 36.3,12.2 36.7,12.1 37.3,12.1 37.3,12.2 37.3,12.7 37.4,13.1 37.3,13.2 36.9,13.1 36.6,13.1 36.3,13.1 36.1,12.9 "></polyline> <polyline class="st0" points="39.5,13.7 40,13.7 40.7,13.9 40.9,14.1 40.8,14.4 40.6,14.9 40.3,14.9 39.2,14.5 39.2,14.4 39.3,14.2 39.4,13.9 "></polyline> <path class="st1" d="M2.7,33.7H2c-0.3,0-0.5,0.1-0.7,0.3c-0.2,0.2-0.3,0.6-0.3,1.1c0,0.8,0.3,1.3,0.9,1.3c0.6,0,0.9-0.5,0.9-1.2 V33.7z M2.7,36.6v-0.5c-0.1,0.2-0.2,0.3-0.3,0.4c-0.2,0.2-0.4,0.2-0.7,0.2S1,36.6,0.8,36.4c-0.2-0.2-0.4-0.7-0.4-1.3 c0-0.6,0.2-1,0.5-1.3c0.3-0.3,0.6-0.4,1.1-0.4h0.7v-1.1c0-0.7-0.3-1.1-0.9-1.1c-0.2,0-0.4,0.1-0.6,0.2c-0.2,0.2-0.3,0.5-0.3,0.9 H0.5c0-0.4,0.1-0.9,0.4-1.2c0.2-0.2,0.5-0.4,0.9-0.4c0.4,0,0.8,0.1,1,0.3c0.3,0.3,0.4,0.6,0.4,1.2v4.4L2.7,36.6L2.7,36.6z"></path> <path class="st1" d="M5.9,31.1c-0.7,0-1.2,0.5-1.2,1.2v4.3H4.3v-5.8h0.4v0.6c0-0.1,0.1-0.3,0.2-0.3c0.3-0.3,0.6-0.4,1-0.4L5.9,31.1 L5.9,31.1L5.9,31.1z"></path> <path class="st1" d="M8.7,36.4c-0.2,0.2-0.6,0.4-1,0.4c-0.4,0-0.7-0.2-1-0.4c-0.3-0.4-0.4-1.1-0.4-2.6s0.1-2.2,0.4-2.6 c0.2-0.2,0.6-0.4,1-0.4c0.4,0,0.7,0.1,1,0.3c0.3,0.3,0.4,0.8,0.4,1.2H8.7c0-0.3,0-0.7-0.3-0.9c-0.2-0.2-0.4-0.2-0.6-0.2 c-0.3,0-0.5,0.1-0.6,0.3c-0.3,0.3-0.3,1-0.3,2.3c0,1.4,0,2,0.3,2.3c0.1,0.2,0.4,0.3,0.6,0.3c0.2,0,0.5-0.1,0.6-0.2 c0.2-0.2,0.3-0.5,0.3-0.9h0.4C9.1,35.7,9,36.1,8.7,36.4"></path> <path class="st1" d="M12.3,36.6v-4.5c0-0.7-0.4-1.1-0.9-1.1c-0.5,0-0.9,0.3-0.9,1.1v4.5h-0.4v-8.3h0.4v2.9c0.1-0.1,0.2-0.3,0.3-0.3 c0.2-0.1,0.4-0.2,0.7-0.2c0.4,0,0.7,0.1,0.9,0.4c0.2,0.2,0.4,0.6,0.4,1.1v4.5C12.7,36.6,12.3,36.6,12.3,36.6z"></path> <path class="st1" d="M15.9,33.7h-0.7c-0.3,0-0.5,0.1-0.7,0.3c-0.2,0.2-0.3,0.6-0.3,1.1c0,0.8,0.3,1.3,0.9,1.3 c0.6,0,0.9-0.5,0.9-1.2L15.9,33.7L15.9,33.7z M15.9,36.6v-0.5c-0.1,0.2-0.2,0.3-0.3,0.4c-0.2,0.2-0.4,0.2-0.7,0.2 c-0.3,0-0.6-0.1-0.9-0.3c-0.2-0.2-0.4-0.7-0.4-1.3c0-0.6,0.2-1,0.5-1.3c0.3-0.3,0.6-0.4,1.1-0.4h0.7v-1.1c0-0.7-0.3-1.1-0.9-1.1 c-0.2,0-0.4,0.1-0.6,0.2c-0.2,0.2-0.3,0.5-0.3,0.9h-0.4c0-0.4,0.1-0.9,0.4-1.2c0.2-0.2,0.5-0.4,0.9-0.4c0.4,0,0.8,0.1,1,0.3 c0.3,0.3,0.4,0.6,0.4,1.2v4.4L15.9,36.6L15.9,36.6z"></path> <path class="st1" d="M19.3,31.4c-0.1-0.2-0.3-0.3-0.6-0.3c-0.3,0-0.5,0.1-0.6,0.3c-0.3,0.3-0.3,0.8-0.3,2h1.9 C19.7,32.2,19.6,31.7,19.3,31.4 M17.8,33.7c0,1.4,0,2,0.3,2.3c0.1,0.2,0.4,0.3,0.6,0.3c0.2,0,0.5-0.1,0.6-0.2 c0.2-0.2,0.3-0.5,0.3-0.9h0.4c0,0.6-0.1,0.9-0.4,1.2c-0.2,0.2-0.6,0.4-1,0.4c-0.4,0-0.8-0.2-1-0.4c-0.3-0.4-0.5-1.1-0.5-2.6 s0.1-2.2,0.4-2.6c0.2-0.2,0.5-0.4,1-0.4s0.7,0.2,1,0.4c0.3,0.4,0.4,1.1,0.4,2.6L17.8,33.7L17.8,33.7z"></path> <path class="st1" d="M22.9,31.4c-0.1-0.2-0.3-0.3-0.6-0.3c-0.3,0-0.5,0.1-0.6,0.3c-0.3,0.3-0.3,1-0.3,2.3s0,2,0.3,2.3 c0.1,0.2,0.3,0.3,0.6,0.3c0.3,0,0.5-0.1,0.6-0.3c0.3-0.3,0.3-1,0.3-2.3S23.2,31.7,22.9,31.4 M23.3,36.3c-0.2,0.2-0.5,0.4-1,0.4 c-0.4,0-0.7-0.2-1-0.4c-0.3-0.4-0.4-1.1-0.4-2.6s0.1-2.2,0.4-2.6c0.2-0.2,0.5-0.4,1-0.4c0.4,0,0.7,0.2,1,0.4 c0.3,0.4,0.4,1.1,0.4,2.6S23.6,36,23.3,36.3"></path> <polygon class="st1" points="25.9,36.6 25.5,36.6 24.1,30.8 24.6,30.8 25.7,36 26.8,30.8 27.3,30.8 "></polygon> <path class="st1" d="M27.8,30.8h0.4v5.8h-0.4V30.8z M27.7,28.6h0.7v0.7h-0.7V28.6z"></path> <path class="st1" d="M31.6,36.3c-0.3,0.3-0.6,0.4-1.1,0.4c-0.4,0-0.7-0.2-1-0.4c-0.3-0.3-0.4-0.8-0.4-1.2h0.4c0,0.4,0.1,0.7,0.3,1 c0.2,0.2,0.4,0.3,0.6,0.3c0.3,0,0.6-0.1,0.7-0.3c0.2-0.2,0.3-0.5,0.3-0.8c0-0.3,0-0.5-0.2-0.7c-0.1-0.2-0.3-0.4-0.6-0.6l-0.7-0.4 c-0.4-0.2-0.6-0.5-0.7-0.7c-0.1-0.2-0.2-0.4-0.2-0.7c0-0.4,0.2-0.8,0.4-1c0.2-0.2,0.6-0.4,1-0.4c0.4,0,0.7,0.1,1,0.4 c0.3,0.3,0.4,0.7,0.4,1.2h-0.4c0-0.5-0.1-0.7-0.3-1c-0.2-0.2-0.4-0.3-0.6-0.3c-0.3,0-0.5,0.1-0.7,0.2c-0.2,0.2-0.3,0.5-0.3,0.8 c0,0.2,0,0.4,0.1,0.6c0.1,0.2,0.3,0.3,0.6,0.5l0.7,0.4c0.4,0.2,0.6,0.4,0.8,0.7c0.2,0.3,0.2,0.6,0.2,0.9C32,35.7,31.9,36,31.6,36.3 "></path> <path class="st1" d="M32.9,30.8h0.4v5.8h-0.4V30.8z M32.8,28.6h0.7v0.7h-0.7V28.6z"></path> <path class="st1" d="M36.4,31.4c-0.1-0.2-0.3-0.3-0.6-0.3c-0.3,0-0.5,0.1-0.6,0.3c-0.3,0.3-0.3,1-0.3,2.3s0,2,0.3,2.3 c0.1,0.2,0.3,0.3,0.6,0.3c0.3,0,0.5-0.1,0.6-0.3c0.3-0.3,0.3-1,0.3-2.3S36.7,31.7,36.4,31.4 M36.8,36.3c-0.2,0.2-0.5,0.4-1,0.4 s-0.7-0.2-1-0.4c-0.3-0.4-0.4-1.1-0.4-2.6s0.1-2.2,0.4-2.6c0.2-0.2,0.5-0.4,1-0.4s0.7,0.2,1,0.4c0.3,0.4,0.4,1.1,0.4,2.6 S37.1,36,36.8,36.3"></path> <path class="st1" d="M40.5,36.6v-4.5c0-0.7-0.4-1.1-0.9-1.1s-0.9,0.3-0.9,1.1v4.5h-0.4v-5.8h0.4v0.5c0.1-0.1,0.2-0.3,0.3-0.3 c0.2-0.1,0.4-0.2,0.7-0.2c0.4,0,0.7,0.1,0.9,0.4c0.2,0.2,0.4,0.6,0.4,1.1v4.5C40.9,36.6,40.5,36.6,40.5,36.6z"></path> </g> </svg> 