<?xml version="1.0" encoding="UTF-8"?> <svg xmlns="http://www.w3.org/2000/svg" width="215" height="378" viewBox="0 0 215 378" fill="none"><path d="M172 0H43V42.8889H172M182.75 96.5C179.899 96.5 177.165 95.3703 175.149 93.3595C173.133 91.3487 172 88.6215 172 85.7778C172 82.9341 173.133 80.2068 175.149 78.196C177.165 76.1852 179.899 75.0556 182.75 75.0556C185.601 75.0556 188.335 76.1852 190.351 78.196C192.367 80.2068 193.5 82.9341 193.5 85.7778C193.5 88.6215 192.367 91.3487 190.351 93.3595C188.335 95.3703 185.601 96.5 182.75 96.5ZM182.75 53.6111H32.25C23.6968 53.6111 15.4939 57.0001 9.44581 63.0325C3.39776 69.0649 0 77.2467 0 85.7778V150.111H43V193H172V150.111H215V85.7778C215 77.2467 211.602 69.0649 205.554 63.0325C199.506 57.0001 191.303 53.6111 182.75 53.6111Z" fill="#212529"></path><rect x="51" y="105" width="114" height="81" fill="#E6FF84"></rect><rect x="43" y="8" width="129" height="51" fill="#212529"></rect><rect x="51" y="8" width="114" height="46" fill="#E6FF84"></rect><path d="M61 147H63.0441V177H61V147Z" fill="#212529"></path><path d="M65.9642 147H70.3444V177H65.9642V147Z" fill="#212529"></path><path d="M71.5124 147H75.8926V177H71.5124V147Z" fill="#212529"></path><path d="M78.8128 147H84.069V177H78.8128V147Z" fill="#212529"></path><path d="M84.945 147H90.2012V177H84.945V147Z" fill="#212529"></path><path d="M93.1214 147H94.5814V177H93.1214V147Z" fill="#212529"></path><path d="M97.5015 147H100.766V176.847H97.5015V147Z" fill="#212529"></path><path d="M105.147 147H111.676V176.847H105.147V147Z" fill="#212529"></path><path d="M114.597 147H120.31V176.847H114.597V147Z" fill="#212529"></path><path d="M121.77 147H128.3V176.847H121.77V147Z" fill="#212529"></path><path d="M136.184 147H131.22V177H136.184V147Z" fill="#212529"></path><path d="M141.441 147H139.105V177H141.441V147Z" fill="#212529"></path><path d="M145.237 147H142.901V177H145.237V147Z" fill="#212529"></path><path d="M145.656 147H147.7V177H145.656V147Z" fill="#212529"></path><path d="M150.62 147H155V177H150.62V147Z" fill="#212529"></path><rect x="43" y="186" width="129" height="97" fill="#212529"></rect><rect x="51" y="194" width="114" height="81" fill="#E6FF84"></rect><path d="M61 235H63.0441V265H61V235Z" fill="#212529"></path><path d="M65.9642 235H70.3444V265H65.9642V235Z" fill="#212529"></path><path d="M71.5124 235H75.8926V265H71.5124V235Z" fill="#212529"></path><path d="M78.8128 235H84.069V265H78.8128V235Z" fill="#212529"></path><path d="M84.945 235H90.2012V265H84.945V235Z" fill="#212529"></path><path d="M93.1214 235H94.5814V265H93.1214V235Z" fill="#212529"></path><path d="M97.5015 235H100.766V264.847H97.5015V235Z" fill="#212529"></path><path d="M105.147 235H111.676V264.847H105.147V235Z" fill="#212529"></path><path d="M114.597 235H120.31V264.847H114.597V235Z" fill="#212529"></path><path d="M121.77 235H128.3V264.847H121.77V235Z" fill="#212529"></path><path d="M136.184 235H131.22V265H136.184V235Z" fill="#212529"></path><path d="M141.441 235H139.105V265H141.441V235Z" fill="#212529"></path><path d="M145.237 235H142.901V265H145.237V235Z" fill="#212529"></path><path d="M145.656 235H147.7V265H145.656V235Z" fill="#212529"></path><path d="M150.62 235H155V265H150.62V235Z" fill="#212529"></path><rect x="43" y="275" width="129" height="97" fill="#212529"></rect><rect x="51" y="283" width="114" height="81" fill="#E6FF84"></rect><path d="M61 324H63.0441V354H61V324Z" fill="#212529"></path><path d="M65.9642 324H70.3444V354H65.9642V324Z" fill="#212529"></path><path d="M71.5124 324H75.8926V354H71.5124V324Z" fill="#212529"></path><path d="M78.8128 324H84.069V354H78.8128V324Z" fill="#212529"></path><path d="M84.945 324H90.2012V354H84.945V324Z" fill="#212529"></path><path d="M93.1214 324H94.5814V354H93.1214V324Z" fill="#212529"></path><path d="M97.5015 324H100.766V353.847H97.5015V324Z" fill="#212529"></path><path d="M105.147 324H111.676V353.847H105.147V324Z" fill="#212529"></path><path d="M114.597 324H120.31V353.847H114.597V324Z" fill="#212529"></path><path d="M121.77 324H128.3V353.847H121.77V324Z" fill="#212529"></path><path d="M136.184 324H131.22V354H136.184V324Z" fill="#212529"></path><path d="M141.441 324H139.105V354H141.441V324Z" fill="#212529"></path><path d="M145.237 324H142.901V354H145.237V324Z" fill="#212529"></path><path d="M145.656 324H147.7V354H145.656V324Z" fill="#212529"></path><path d="M150.62 324H155V354H150.62V324Z" fill="#212529"></path></svg> 